<svg xmlns="http://www.w3.org/2000/svg" viewBox="0 0 230 50"><defs><style>.cls-1{fill:#0abde3;}.cls-2{fill:#fff;}</style></defs><g id="Capa_2" data-name="Capa 2"><g id="Capa_1-2" data-name="Capa 1"><rect class="cls-1" width="230" height="50" rx="3.9"/><path class="cls-2" d="M44.92,19.45v3.7H51.4v2.6H44.92v5.1H41.68v-14H52.26v2.6Z"/><path class="cls-2" d="M53.66,16.85a1.78,1.78,0,0,1,1.94-1.74,1.75,1.75,0,0,1,1.94,1.68,1.95,1.95,0,0,1-3.88.06ZM54,20.09h3.12V30.85H54Z"/><path class="cls-2" d="M66.74,19.93v2.88c-.26,0-.46,0-.7,0-1.72,0-2.86.94-2.86,3v5.08H60.06V20.09h3v1.42A4.34,4.34,0,0,1,66.74,19.93Z"/><path class="cls-2" d="M86.78,24.69v6.16H83.66V25.17c0-1.74-.78-2.54-2-2.54s-2.38.9-2.38,2.82v5.4H76.12V25.17c0-1.74-.74-2.54-2-2.54s-2.36.9-2.36,2.82v5.4H68.6V20.09h3v1.24A4.36,4.36,0,0,1,75,19.93a4,4,0,0,1,3.54,1.76,4.84,4.84,0,0,1,3.88-1.76C84.94,19.93,86.78,21.41,86.78,24.69Z"/><path class="cls-2" d="M99.1,24.71v6.14H96.18V29.51A3.53,3.53,0,0,1,92.9,31c-2.52,0-4-1.4-4-3.26s1.34-3.22,4.62-3.22H96c0-1.34-.8-2.12-2.48-2.12a5.17,5.17,0,0,0-3.1,1l-1.12-2.18a8.27,8.27,0,0,1,4.64-1.3C97.2,19.93,99.1,21.45,99.1,24.71ZM96,27.45v-1.1H93.84c-1.46,0-1.92.54-1.92,1.26s.66,1.3,1.76,1.3A2.3,2.3,0,0,0,96,27.45Z"/><path class="cls-2" d="M108.6,19.93v2.88c-.26,0-.46,0-.7,0-1.72,0-2.86.94-2.86,3v5.08h-3.12V20.09h3v1.42A4.34,4.34,0,0,1,108.6,19.93Z"/><path class="cls-2" d="M128.56,21.93c0,3.12-2.34,5.06-6.08,5.06h-2.82v3.86h-3.24v-14h6.06C126.22,16.85,128.56,18.79,128.56,21.93Zm-3.28,0c0-1.54-1-2.44-3-2.44h-2.64v4.86h2.64C124.28,24.35,125.28,23.45,125.28,21.93Z"/><path class="cls-2" d="M140.06,24.71v6.14h-2.92V29.51a3.53,3.53,0,0,1-3.28,1.5c-2.52,0-4-1.4-4-3.26s1.34-3.22,4.62-3.22h2.48c0-1.34-.8-2.12-2.48-2.12a5.17,5.17,0,0,0-3.1,1l-1.12-2.18a8.27,8.27,0,0,1,4.64-1.3C138.16,19.93,140.06,21.45,140.06,24.71Zm-3.12,2.74v-1.1H134.8c-1.46,0-1.92.54-1.92,1.26s.66,1.3,1.76,1.3A2.3,2.3,0,0,0,136.94,27.45Z"/><path class="cls-2" d="M154.1,20.09v9c0,4-2.16,5.84-6,5.84a8.86,8.86,0,0,1-5.28-1.48L144,31.17a6.43,6.43,0,0,0,3.8,1.22c2.2,0,3.16-1,3.16-2.94V29a4.43,4.43,0,0,1-3.4,1.34,5.2,5.2,0,1,1,0-10.4,4.32,4.32,0,0,1,3.56,1.54V20.09Zm-3.08,5a2.84,2.84,0,1,0-2.82,2.64A2.61,2.61,0,0,0,151,25.13Z"/><path class="cls-2" d="M166.52,24.71v6.14H163.6V29.51a3.53,3.53,0,0,1-3.28,1.5c-2.52,0-4-1.4-4-3.26s1.34-3.22,4.62-3.22h2.48c0-1.34-.8-2.12-2.48-2.12a5.17,5.17,0,0,0-3.1,1l-1.12-2.18a8.27,8.27,0,0,1,4.64-1.3C164.62,19.93,166.52,21.45,166.52,24.71Zm-3.12,2.74v-1.1h-2.14c-1.46,0-1.92.54-1.92,1.26s.66,1.3,1.76,1.3A2.3,2.3,0,0,0,163.4,27.45Z"/><path class="cls-2" d="M176,19.93v2.88c-.26,0-.46,0-.7,0-1.72,0-2.86.94-2.86,3v5.08h-3.12V20.09h3v1.42A4.34,4.34,0,0,1,176,19.93Z"/><path class="cls-2" d="M188.26,26.35h-8.14a2.87,2.87,0,0,0,3.08,2.16,3.65,3.65,0,0,0,2.7-1l1.66,1.8A5.64,5.64,0,0,1,183.12,31c-3.72,0-6.14-2.34-6.14-5.54a5.48,5.48,0,0,1,5.74-5.54,5.33,5.33,0,0,1,5.6,5.58C188.32,25.75,188.28,26.09,188.26,26.35Zm-8.18-1.82h5.3a2.69,2.69,0,0,0-5.3,0Zm3.2-5.82h-2.44l2.7-2.88h3.36Z"/></g></g></svg>