<svg xmlns="http://www.w3.org/2000/svg" viewBox="0 0 129.99 39.55"><defs><style>.cls-1{fill:#3f3f3f;}.cls-2{fill:#7c1d7c;}.cls-3{fill:#fff;}</style></defs><g id="Capa_2" data-name="Capa 2"><g id="Capa_1-2" data-name="Capa 1"><path class="cls-1" d="M56.93,8.71l-4.24,9.8H50.45l-4.23-9.8h2.45l3,7,3-7Z"/><path class="cls-1" d="M64.37,15.36H58.66a2,2,0,0,0,2.16,1.51,2.55,2.55,0,0,0,1.89-.73l1.17,1.27a4,4,0,0,1-3.11,1.21c-2.61,0-4.3-1.63-4.3-3.88a3.84,3.84,0,0,1,4-3.88,3.73,3.73,0,0,1,3.92,3.91C64.41,14.94,64.38,15.18,64.37,15.36Zm-5.73-1.28h3.71a1.88,1.88,0,0,0-3.71,0Z"/><path class="cls-1" d="M70.54,10.86v2c-.18,0-.32,0-.49,0A1.85,1.85,0,0,0,68,15v3.56H65.86V11H68v1A3,3,0,0,1,70.54,10.86Z"/><path class="cls-1" d="M78,10.56H74.9V8.71h8.55v1.85H80.31v8H78Z"/><path class="cls-1" d="M91.93,11v7.53H89.86v-.89a3.09,3.09,0,0,1-2.34,1c-1.89,0-3.22-1.06-3.22-3.39V11h2.18v3.93c0,1.26.56,1.82,1.53,1.82s1.74-.64,1.74-2V11Z"/><path class="cls-1" d="M98.82,18.15a3.15,3.15,0,0,1-1.78.47,2.49,2.49,0,0,1-2.82-2.7V12.83H93.06V11.14h1.16V9.31h2.19v1.83h1.88v1.69H96.41v3.06a.88.88,0,0,0,.94,1,1.49,1.49,0,0,0,.88-.28Z"/><path class="cls-1" d="M99.25,14.74a4.15,4.15,0,1,1,4.15,3.88A3.88,3.88,0,0,1,99.25,14.74Zm6.06,0a1.93,1.93,0,1,0-3.85,0,1.93,1.93,0,1,0,3.85,0Z"/><path class="cls-1" d="M113.66,10.86v2c-.18,0-.32,0-.49,0a1.85,1.85,0,0,0-2,2.1v3.56H109V11h2.09v1A3,3,0,0,1,113.66,10.86Z"/><path class="cls-1" d="M114.69,8.71a1.25,1.25,0,0,1,1.36-1.22,1.23,1.23,0,0,1,1.36,1.18,1.37,1.37,0,0,1-2.72,0ZM115,11h2.18v7.53H115Z"/><path class="cls-1" d="M125.84,14.21v4.3h-2v-.94a2.45,2.45,0,0,1-2.29,1.05c-1.77,0-2.82-1-2.82-2.28s.94-2.26,3.24-2.26h1.73c0-.93-.56-1.48-1.73-1.48a3.63,3.63,0,0,0-2.17.7L119,11.77a5.88,5.88,0,0,1,3.25-.91C124.51,10.86,125.84,11.93,125.84,14.21Zm-2.19,1.92v-.77h-1.49c-1,0-1.35.38-1.35.88s.46.91,1.23.91A1.6,1.6,0,0,0,123.65,16.13Z"/><path class="cls-1" d="M127.81,8.12H130V18.51h-2.18Z"/><path class="cls-2" d="M23.77,12.14l-8-4.4A1.49,1.49,0,0,0,13.55,9v8.71A1.45,1.45,0,0,0,14.27,19a1.42,1.42,0,0,0,.76.22,1.46,1.46,0,0,0,.7-.18l8-4.32a1.48,1.48,0,0,0,0-2.59Zm-8.09,4.51V10.14l6,3.29Z"/><path class="cls-2" d="M36.08,6.5v0c0-.29-.33-2.89-1.6-4.22A5.92,5.92,0,0,0,30.56.43l-.19,0h-.06C25.51.05,18.25,0,18.18,0h0C18.09,0,10.84.05,6,.4H5.92l-.17,0a5.85,5.85,0,0,0-3.89,1.9A8.8,8.8,0,0,0,.27,6.46v0c0,.12-.27,3-.27,5.93v2.72c0,2.9.26,5.8.27,5.92v0a8.25,8.25,0,0,0,1.6,4.17,6.05,6.05,0,0,0,4,1.81l.37.05h.08c2.77.26,11.47.39,11.84.4h0c.07,0,7.33-.05,12.13-.4h.07l.2,0a5.61,5.61,0,0,0,3.86-1.85,8.58,8.58,0,0,0,1.59-4.14v0c0-.12.26-3,.26-5.92V12.43C36.34,9.52,36.09,6.62,36.08,6.5Zm-1.87,8.65c0,2.69-.23,5.46-.25,5.72a6.74,6.74,0,0,1-1.05,2.95A3.49,3.49,0,0,1,30.4,25l-.23,0c-4.65.33-11.63.38-12,.39S9.29,25.26,6.6,25L6.16,25a4,4,0,0,1-2.73-1.13l0,0a6.16,6.16,0,0,1-1-2.92c0-.19-.26-3-.26-5.72V12.43c0-2.69.23-5.46.26-5.72a6.53,6.53,0,0,1,1-2.95A3.69,3.69,0,0,1,6,2.54l.17,0c4.72-.34,11.75-.39,12-.39s7.28.05,12,.39l.18,0a3.83,3.83,0,0,1,2.61,1.18h0a6.33,6.33,0,0,1,1,3c0,.18.25,3,.25,5.73Z"/><g id="Grupo_3654" data-name="Grupo 3654"><path id="Trazado_7807" data-name="Trazado 7807" class="cls-3" d="M28.59,13.74,27.22,15l4.6,12.62L30,26.76l-2.12,1.17,1,2.19,1.5.62,2.68,2.67,2.06,1.72,2,1.58,2.12,1.78,8.64-4-.41-3.77L47.11,27l-3-6.52L42.51,20l-2.67-.07-3.7.28H33.46l-4-6Z"/><g id="BoIIUr"><g id="Grupo_2600" data-name="Grupo 2600"><path id="Trazado_7808" data-name="Trazado 7808" d="M42.52,20l1.07-.5.5,1.07,1.08-.48,3,6.46-1.07.5,1.48,3.24-1.07.5L49,34l-1.07.5.49,1.08-8.63,4-.5-1.07L38.19,39l-1-2.14,1.07-.51,1,2.16,8.63-4-1.49-3.23,1.07-.51L46,27.54,47.07,27l-3-6.46L43,21,42.53,20Z"/><path id="Trazado_7809" data-name="Trazado 7809" d="M29.44,14.19,27.68,15l-.43.2,6,13-1.06.49-.51-1.08-1.07.5L30.05,27l-2.14,1,1,2.16-1.07.49-1.5-3.23L29.55,26l.52,1,1.09-.47-5-10.78,1.07-.51-.48-1.08,2.13-1,.54,1Z"/><path id="Trazado_7810" data-name="Trazado 7810" d="M29.43,14.2l1.06-.44,3,6.45,2.15-1,.51,1.06,3.23-1.48.5,1.07-2.16,1,1,2.15-1.07.51L36.13,20.3,34,21.3l1,2.15-1.07.5c-.34-.75-.67-1.47-1-2.19-1.11-2.42-2.23-4.83-3.34-7.25,0-.1-.07-.21-.1-.31Z"/><path id="Trazado_7811" data-name="Trazado 7811" d="M33.09,33.43l1-.42,1,2.14,1.08-.49,1,2.15-1.08.49-1-2.15L34,35.64c-.32-.7-.63-1.37-.93-2a.29.29,0,0,1,0-.16Z"/><path id="Trazado_7812" data-name="Trazado 7812" d="M42.53,20l-1.09.51,1,2.15-1.06.5-1.5-3.23,2.15-1L42.52,20Z"/><path id="Trazado_7813" data-name="Trazado 7813" d="M33.09,33.43,32,34l-1.5-3.25,1.07-.49c.15.31.29.6.42.9.32.68.63,1.37,1,2.05a2,2,0,0,0,.17.23Z"/><path id="Trazado_7814" data-name="Trazado 7814" d="M28.91,30.17l1.07-.5.5,1.08-1.08.5Z"/></g></g></g></g></g></svg>