<svg xmlns="http://www.w3.org/2000/svg" xmlns:xlink="http://www.w3.org/1999/xlink" viewBox="0 0 287.64 86.72"><defs><style>.cls-1{fill:#3f3f3f;}.cls-2{fill:#9e267c;}.cls-3{fill:#858585;}.cls-4{fill:url(#Degradado_sin_nombre_11);}.cls-5{fill:url(#Degradado_sin_nombre_11-2);}.cls-6{fill:url(#Degradado_sin_nombre_11-3);}.cls-7{fill:url(#Degradado_sin_nombre_11-4);}.cls-8{fill:url(#Degradado_sin_nombre_11-5);}.cls-9{fill:url(#Degradado_sin_nombre_11-6);}.cls-10{fill:url(#Degradado_sin_nombre_11-7);}</style><linearGradient id="Degradado_sin_nombre_11" x1="15.24" y1="45.36" x2="15.24" y2="5.01" gradientUnits="userSpaceOnUse"><stop offset="0.11" stop-color="#7c1d7c"/><stop offset="0.16" stop-color="#851f7c"/><stop offset="0.29" stop-color="#93237c"/><stop offset="0.45" stop-color="#9c257c"/><stop offset="0.72" stop-color="#9e267c"/></linearGradient><linearGradient id="Degradado_sin_nombre_11-2" x1="59.71" y1="45.36" x2="59.71" y2="13.89" xlink:href="#Degradado_sin_nombre_11"/><linearGradient id="Degradado_sin_nombre_11-3" x1="99.45" y1="45.36" x2="99.45" y2="13.89" xlink:href="#Degradado_sin_nombre_11"/><linearGradient id="Degradado_sin_nombre_11-4" x1="144.99" y1="45.82" x2="144.99" y2="13.89" xlink:href="#Degradado_sin_nombre_11"/><linearGradient id="Degradado_sin_nombre_11-5" x1="192.59" y1="45.36" x2="192.59" y2="13.89" xlink:href="#Degradado_sin_nombre_11"/><linearGradient id="Degradado_sin_nombre_11-6" x1="273.12" y1="45.82" x2="273.12" y2="13.89" xlink:href="#Degradado_sin_nombre_11"/><linearGradient id="Degradado_sin_nombre_11-7" x1="39.51" y1="45.36" x2="39.51" y2="0" xlink:href="#Degradado_sin_nombre_11"/></defs><g id="Capa_2" data-name="Capa 2"><g id="Capa_1-2" data-name="Capa 1"><path class="cls-1" d="M251,60.79a1,1,0,0,1-.34-.06l-11.09-4.3-11.09,4.3a.94.94,0,0,1-.86-.1.91.91,0,0,1-.4-.76V43.16a.92.92,0,0,1,1.53-.69,16.91,16.91,0,0,0,21.64,0,.92.92,0,0,1,1.53.69V59.87a.92.92,0,0,1-.92.92ZM239.6,54.53a.92.92,0,0,1,.33.06l10.18,3.94V45a19,19,0,0,1-21,0V58.53l10.18-3.94A.92.92,0,0,1,239.6,54.53Z"/><path class="cls-2" d="M239.6,49.47h0a19.46,19.46,0,0,1-12.9-4.69,18.54,18.54,0,0,1-6.11-14v-.07a18.5,18.5,0,0,1,6.11-14,19.43,19.43,0,0,1,12.9-4.69h0a19.46,19.46,0,0,1,12.9,4.69,18.52,18.52,0,0,1,6.11,14v.07a18.54,18.54,0,0,1-6.11,14.05A19.48,19.48,0,0,1,239.6,49.47ZM225,30.7a14.23,14.23,0,0,0,4.62,10.79,15.08,15.08,0,0,0,10,3.6h0a15.08,15.08,0,0,0,10-3.6,14.21,14.21,0,0,0,4.62-10.79,14.21,14.21,0,0,0-4.62-10.79,15.09,15.09,0,0,0-10-3.61h0a15.08,15.08,0,0,0-10,3.6A14.25,14.25,0,0,0,225,30.7Z"/><path class="cls-1" d="M231.6,31.33c-.66-.62.55-1.35.88-1.77a.63.63,0,0,1,1,.07l3.46,3.72a.31.31,0,0,0,.44,0l8.45-8.77h.06c.62-.66,1.35.56,1.77.89a.61.61,0,0,1,0,.88h0L237.52,36.81a.55.55,0,0,1-.44.19C236.69,37.19,231.8,31.52,231.6,31.33Z"/><path class="cls-3" d="M149.51,67.36c3.51,0,6.16,2.61,6.16,6.66s-2.67,6.75-6.16,6.75a5.4,5.4,0,0,1-4.85-2.6v2.39H142.5V63h2.16v7A5.51,5.51,0,0,1,149.51,67.36Zm-.45,1.87a4.46,4.46,0,0,0-4.4,4.81c0,3.06,2.06,4.84,4.4,4.84s4.41-1.8,4.41-4.86S151.46,69.23,149.06,69.23Z"/><path class="cls-3" d="M166.88,67.58h2.22l-7.82,19.09h-2.22l2.56-6.25-5.24-12.84h2.39l4.08,10.51Z"/><path class="cls-3" d="M183.88,80.72a8.43,8.43,0,1,1,8.29-8.43A8.14,8.14,0,0,1,183.88,80.72Zm0-1.87c3.48,0,6.09-2.53,6.09-6.56s-2.61-6.56-6.09-6.56-6.09,2.51-6.09,6.56S180.4,78.85,183.88,78.85Z"/><path class="cls-3" d="M194.42,63h2.16V80.56h-2.16Z"/><path class="cls-3" d="M199.3,64a1.45,1.45,0,1,1,1.47,1.47A1.45,1.45,0,0,1,199.3,64Zm.36,3.58h2.15v13h-2.15Z"/><path class="cls-3" d="M223.63,73.21c0-2.65-1.42-4-3.55-4s-3.68,1.4-3.68,4.19v7.16h-2.13V73.21c0-2.65-1.42-4-3.55-4s-3.67,1.4-3.67,4.19v7.16h-2.16v-13h2.16v1.87a4.67,4.67,0,0,1,4.09-2.11,4.9,4.9,0,0,1,4.77,2.89,4.79,4.79,0,0,1,4.59-2.89c3,0,5.26,1.85,5.26,5.57v7.65h-2.13Z"/><path class="cls-3" d="M235.71,67.36c3.48,0,6.16,2.61,6.16,6.66s-2.68,6.75-6.16,6.75a5.64,5.64,0,0,1-4.86-2.6v8.55H228.7V67.58h2.15V70A5.48,5.48,0,0,1,235.71,67.36Zm-.45,1.87A4.46,4.46,0,0,0,230.85,74c0,3.06,2.06,4.84,4.41,4.84s4.4-1.8,4.4-4.86S237.65,69.23,235.26,69.23Z"/><path class="cls-3" d="M243.76,64a1.45,1.45,0,1,1,1.47,1.47A1.45,1.45,0,0,1,243.76,64Zm.36,3.58h2.15v13h-2.15Z"/><path class="cls-3" d="M254.7,67.36A5.38,5.38,0,0,1,259.54,70V67.58h2.18v13h-2.18V78.14a5.44,5.44,0,0,1-4.86,2.63c-3.46,0-6.13-2.72-6.13-6.75S251.22,67.36,254.7,67.36Zm.43,1.87c-2.37,0-4.38,1.73-4.38,4.79s2,4.86,4.38,4.86,4.41-1.78,4.41-4.84S257.5,69.23,255.13,69.23Z"/><path class="cls-3" d="M270.5,64.05h2.16V80.56H270.5Z"/><path class="cls-3" d="M274.72,64.05H285.9V65.8h-4.5V80.56h-2.16V65.8h-4.52Z"/><path class="cls-4" d="M9.34,12.51V23.17H28v7.49H9.34v14.7H0V5H30.49v7.5Z"/><path class="cls-5" d="M69.34,13.89v8.3c-.75-.06-1.33-.12-2-.12-5,0-8.24,2.71-8.24,8.65V45.36h-9v-31h8.58v4.09C60.87,15.45,64.55,13.89,69.34,13.89Z"/><path class="cls-6" d="M125.65,27.61V45.36h-9V29c0-5-2.25-7.32-5.88-7.32-4,0-6.86,2.6-6.86,8.13V45.36h-9V29c0-5-2.13-7.32-5.88-7.32-4,0-6.8,2.6-6.8,8.13V45.36h-9v-31h8.59v3.58a12.52,12.52,0,0,1,9.74-4c4.32,0,8,1.67,10.2,5.07A13.94,13.94,0,0,1,113,13.89C120.35,13.89,125.65,18.16,125.65,27.61Z"/><path class="cls-7" d="M159.71,27.67V45.36H151.3V41.5c-1.67,2.82-4.9,4.32-9.45,4.32-7.27,0-11.59-4-11.59-9.39s3.86-9.28,13.31-9.28h7.15c0-3.86-2.3-6.11-7.15-6.11a14.89,14.89,0,0,0-8.93,2.88l-3.23-6.28c3.4-2.42,8.42-3.75,13.38-3.75C154.24,13.89,159.71,18.27,159.71,27.67Zm-9,7.89V32.39h-6.17C140.35,32.39,139,34,139,36c0,2.25,1.9,3.75,5.07,3.75C147.09,39.77,149.68,38.39,150.72,35.56Z"/><path class="cls-8" d="M218.79,27.61V45.36h-9V29c0-5-2.25-7.32-5.88-7.32-4,0-6.86,2.6-6.86,8.13V45.36h-9V29c0-5-2.13-7.32-5.88-7.32-4,0-6.8,2.6-6.8,8.13V45.36h-9v-31H175v3.58a12.52,12.52,0,0,1,9.74-4c4.32,0,8,1.67,10.2,5.07a13.94,13.94,0,0,1,11.18-5.07C213.49,13.89,218.79,18.16,218.79,27.61Z"/><path class="cls-9" d="M259.08,42.48l3-6.46a21.16,21.16,0,0,0,10.78,3c4.15,0,5.7-1.1,5.7-2.82,0-5.08-18.73.11-18.73-12.28,0-5.88,5.3-10,14.35-10,4.27,0,9,1,11.93,2.71l-3,6.4a17.77,17.77,0,0,0-8.93-2.31c-4,0-5.76,1.27-5.76,2.88,0,5.31,18.73.18,18.73,12.4,0,5.76-5.36,9.85-14.64,9.85C267.26,45.82,262,44.38,259.08,42.48Z"/><path class="cls-10" d="M33.92,5c0-2.82,2.25-5,5.59-5S45.1,2.07,45.1,4.84c0,3-2.24,5.19-5.59,5.19S33.92,7.84,33.92,5ZM35,14.35h9v31H35Z"/><rect class="cls-1" x="0.49" y="51.45" width="218.9" height="3.55"/><rect class="cls-1" x="259.26" y="51.45" width="28.38" height="3.55"/></g></g></svg>